<?xml version="1.0" encoding="utf-8"?>
<!-- Generator: Adobe Illustrator 13.0.0, SVG Export Plug-In  -->
<!DOCTYPE svg [
	<!ENTITY ns_flows "http://ns.adobe.com/Flows/1.0/">
]>
<svg version="1.2" baseProfile="tiny"
	 xmlns="http://www.w3.org/2000/svg" xmlns:xlink="http://www.w3.org/1999/xlink" xmlns:a="http://ns.adobe.com/AdobeSVGViewerExtensions/3.0/"
	 x="0px" y="0px" width="106px" height="100px" viewBox="-0.929 0.5 106 100" xml:space="preserve">
<defs>
</defs>
<polygon fill="#FFFFFF" points="105.248,19.885 86.002,19.885 86.002,0 81.191,0 81.191,19.885 61.947,19.885 61.947,24.856 
	81.191,24.856 81.191,44.742 86.002,44.742 86.002,24.856 105.248,24.856 "/>
<path fill="#FFFFFF" d="M49.281,58.363c-2.69-1.967-7.83-6.749-7.83-9.56c0-3.294,0.911-4.917,5.708-8.791
	c4.919-3.971,8.4-9.554,8.4-16.047c0-7.732-3.333-15.266-9.587-17.752h9.43l6.657-4.971H32.318
	c-13.335,0-25.885,10.438-25.885,22.529c0,12.355,9.091,22.327,22.656,22.327c0.942,0,1.858-0.019,2.756-0.086
	c-0.88,1.742-1.508,3.704-1.508,5.739c0,3.435,1.786,6.22,4.046,8.49c-1.708,0-3.357,0.05-5.156,0.05
	C12.712,60.291,0,71.161,0,82.431c0,11.1,13.936,18.044,30.452,18.044c18.83,0,29.229-11.038,29.229-22.139
	C59.681,69.436,57.139,64.105,49.281,58.363 M33.394,42.966c-7.663-0.237-14.948-8.857-16.27-19.252
	c-1.322-10.4,3.816-18.356,11.476-18.121c7.661,0.238,14.946,8.582,16.269,18.978C46.19,34.967,41.052,43.203,33.394,42.966
	 M30.391,95.567c-11.415,0-19.659-7.466-19.659-16.437c0-8.79,10.228-16.106,21.641-15.979c2.665,0.029,5.146,0.473,7.401,1.225
	c6.198,4.453,10.643,6.971,11.895,12.045c0.238,1.029,0.367,2.088,0.367,3.169C52.035,88.559,46.441,95.567,30.391,95.567"/>
</svg>
