<?xml version="1.0" encoding="utf-8"?>
<!-- Generator: Adobe Illustrator 13.0.0, SVG Export Plug-In  -->
<!DOCTYPE svg PUBLIC "-//W3C//DTD SVG 1.1//EN" "http://www.w3.org/Graphics/SVG/1.1/DTD/svg11.dtd" [
	<!ENTITY ns_flows "http://ns.adobe.com/Flows/1.0/">
]>
<svg version="1.1"
	 xmlns="http://www.w3.org/2000/svg" xmlns:xlink="http://www.w3.org/1999/xlink" xmlns:a="http://ns.adobe.com/AdobeSVGViewerExtensions/3.0/"
	 x="0px" y="0px" width="157px" height="150px" viewBox="-0.375 -0.177 157 150" enable-background="new -0.375 -0.177 157 150"
	 xml:space="preserve">
<defs>
</defs>
<path fill="#FFFFFF" d="M35.46,149.292V48.56H1.98v100.731H35.46z M18.72,34.807c11.677,0,18.943-7.736,18.943-17.402
	C37.446,7.52,30.397,0,18.94,0C7.488,0,0,7.52,0,17.405c0,9.666,7.266,17.402,18.5,17.402h0.217H18.72z"/>
<path fill="#FFFFFF" d="M53.986,149.292h33.48V93.04c0-3.011,0.223-6.017,1.104-8.171c2.422-6.017,7.932-12.244,17.182-12.244
	c12.115,0,16.961,9.238,16.961,22.781v53.886h33.48v-57.76c0-30.936-16.521-45.334-38.549-45.334
	c-18.064,0-25.996,10.096-30.4,16.97h0.229V48.56H53.989c0.438,9.453,0,100.731,0,100.731H53.986z"/>
</svg>
