<?xml version="1.0" encoding="utf-8"?>
<!-- Generator: Adobe Illustrator 13.0.0, SVG Export Plug-In  -->
<!DOCTYPE svg PUBLIC "-//W3C//DTD SVG 1.1//EN" "http://www.w3.org/Graphics/SVG/1.1/DTD/svg11.dtd" [
	<!ENTITY ns_flows "http://ns.adobe.com/Flows/1.0/">
]>
<svg version="1.1"
	 xmlns="http://www.w3.org/2000/svg" xmlns:xlink="http://www.w3.org/1999/xlink" xmlns:a="http://ns.adobe.com/AdobeSVGViewerExtensions/3.0/"
	 x="0px" y="0px" width="122px" height="157px" viewBox="-0.621 -0.035 122 157" enable-background="new -0.621 -0.035 122 157"
	 xml:space="preserve">
<defs>
</defs>
<path fill="#FFFFFF" d="M64.347,0C21.569,0,0,30.67,0,56.246c0,15.486,5.862,29.263,18.438,34.397
	c2.062,0.843,3.909,0.029,4.507-2.254c0.416-1.58,1.4-5.566,1.84-7.226c0.603-2.258,0.369-3.05-1.295-5.018
	c-3.626-4.277-5.943-9.814-5.943-17.657c0-22.754,17.024-43.124,44.33-43.124c24.179,0,37.463,14.774,37.463,34.505
	c0,25.961-11.489,47.872-28.545,47.872c-9.42,0-16.471-7.79-14.211-17.344c2.707-11.406,7.949-23.716,7.949-31.949
	c0-7.37-3.956-13.517-12.144-13.517c-9.629,0-17.364,9.961-17.364,23.305c0,8.499,2.872,14.247,2.872,14.247
	s-9.854,41.751-11.581,49.063c-3.44,14.562-0.518,32.413-0.27,34.216c0.145,1.068,1.518,1.322,2.139,0.515
	c0.889-1.159,12.357-15.317,16.256-29.464c1.104-4.006,6.334-24.749,6.334-24.749c3.128,5.967,12.271,11.223,21.993,11.223
	c28.944,0,48.581-26.387,48.581-61.707C121.349,24.873,98.728,0,64.347,0z"/>
</svg>
