<?xml version="1.0" encoding="utf-8"?>
<!-- Generator: Adobe Illustrator 15.0.0, SVG Export Plug-In . SVG Version: 6.00 Build 0)  -->
<!DOCTYPE svg PUBLIC "-//W3C//DTD SVG 1.1//EN" "http://www.w3.org/Graphics/SVG/1.1/DTD/svg11.dtd">
<svg version="1.1" id="Capa_1" xmlns="http://www.w3.org/2000/svg" xmlns:xlink="http://www.w3.org/1999/xlink" x="0px" y="0px"
	 width="84px" height="78px" viewBox="0 0 84 78" enable-background="new 0 0 84 78" xml:space="preserve">
<g opacity="0.5">
	<path fill="#FFFFFF" d="M29.565,38.504c3.877-5.821,7.451-11.697,9.512-18.436c2.837-9.279-11.649-13.186-14.471-3.961
		c-1.669,5.458-4.893,10.185-8.031,14.897c-2.268,3.404-0.624,8.3,2.745,10.246C23.028,43.391,27.301,41.903,29.565,38.504
		L29.565,38.504z"/>
</g>
<g opacity="0.5">
	<path fill="#FFFFFF" d="M37.263,67.98c14.852,0.131,27.06-7.997,35.072-20.112c5.346-8.084-7.676-15.537-12.99-7.5
		c-5.063,7.656-12.633,12.691-21.973,12.608C27.681,52.892,27.604,67.895,37.263,67.98L37.263,67.98z"/>
</g>
<g opacity="0.5">
	<path fill="#FFFFFF" d="M29.565,38.504c3.877-5.821,7.451-11.697,9.512-18.436c2.837-9.279-11.649-13.186-14.471-3.961
		c-1.669,5.458-4.893,10.185-8.031,14.897c-2.268,3.404-0.624,8.3,2.745,10.246C23.028,43.391,27.301,41.903,29.565,38.504
		L29.565,38.504z"/>
</g>
<g opacity="0.5">
	<path fill="#FFFFFF" d="M37.263,67.98c14.852,0.131,27.06-7.997,35.072-20.112c5.346-8.084-7.676-15.537-12.99-7.5
		c-5.063,7.656-12.633,12.691-21.973,12.608C27.681,52.892,27.604,67.895,37.263,67.98L37.263,67.98z"/>
</g>
</svg>
