<?xml version="1.0" encoding="utf-8"?>
<!-- Generator: Adobe Illustrator 15.0.0, SVG Export Plug-In . SVG Version: 6.00 Build 0)  -->
<!DOCTYPE svg PUBLIC "-//W3C//DTD SVG 1.1//EN" "http://www.w3.org/Graphics/SVG/1.1/DTD/svg11.dtd">
<svg version="1.1" id="Capa_1" xmlns="http://www.w3.org/2000/svg" xmlns:xlink="http://www.w3.org/1999/xlink" x="0px" y="0px"
	 width="69.027px" height="66.372px" viewBox="0 0 69.027 66.372" enable-background="new 0 0 69.027 66.372" xml:space="preserve">
<g opacity="0.5">
	<path fill="#FFFFFF" d="M7.708,20.014c1.52,17.405,12.717,31.2,27.437,39.882c8.342,4.92,15.835-8.074,7.5-12.99
		c-9.677-5.708-18.906-15.016-19.933-26.783C21.877,10.555,6.868,10.389,7.708,20.014L7.708,20.014z"/>
</g>
<g opacity="0.5">
	<path fill="#FFFFFF" d="M43.674,12.119c-0.82,8.062,1.081,16.295,5.418,23.15c5.154,8.146,18.126,0.602,12.939-7.595
		c-3.041-4.807-3.927-9.818-3.354-15.446c0.414-4.072-3.651-7.531-7.448-7.556C46.849,4.642,44.088,8.056,43.674,12.119
		L43.674,12.119z"/>
</g>
</svg>
