<?xml version="1.0" encoding="utf-8"?>
<!-- Generator: Adobe Illustrator 16.0.0, SVG Export Plug-In . SVG Version: 6.00 Build 0)  -->
<!DOCTYPE svg PUBLIC "-//W3C//DTD SVG 1.1//EN" "http://www.w3.org/Graphics/SVG/1.1/DTD/svg11.dtd">
<svg version="1.1" id="Layer_1" xmlns="http://www.w3.org/2000/svg" xmlns:xlink="http://www.w3.org/1999/xlink" x="0px" y="0px"
	 width="287px" height="74px" viewBox="0 0 287 74" enable-background="new 0 0 287 74" xml:space="preserve">
<g>
	<path fill="#F8CD2F" d="M0.119,28.005l42.77,18.11V37.24L0.119,19.131C0.119,21.834,0.119,25.233,0.119,28.005z"/>
	<path fill="#EFDCA9" d="M1.943,17.314l10.478,4.439l30.513-12.88c0-2.771,0-6.17,0-8.873L1.943,17.314z"/>
	<path fill="#EFDCA9" d="M25.875,27.463l17.059-7.131c0-2.771,0-6.171,0-8.873l-27.606,11.59L25.875,27.463z"/>
	<path fill="#8E401F" d="M10.369,64.264c0,3.228,0,5.85,0,8.976l30.58-13.884L30.735,55.02L10.369,64.264z"/>
	<path fill="#8E401F" d="M10.369,52.688c0,2.744,0,6.182,0,8.955l17.443-7.889l-10.197-4.32L10.369,52.688z"/>
	<path fill="#F8CD2F" d="M6.119,42.01l36.77,15.569v-8.874L6.119,33.136C6.119,35.809,6.119,39.213,6.119,42.01z"/>
</g>
<g>
	<path fill="#F2F2F2" d="M68.868,22.249c3.774,0,9.923,1.622,9.923,5.622v2.188H76.3v-1.471c0-2.49-4.301-3.849-7.359-3.849
		c-5.885,0-10.413,4.603-10.413,11.017c0,6.338,4.491,11.433,10.527,11.433c5.472,0,8.677-3.736,8.677-3.736l1.511,1.924
		c0,0-3.661,4.303-10.227,4.303c-7.772,0-13.244-6.187-13.244-13.922C55.774,28.097,61.396,22.249,68.868,22.249z"/>
	<path fill="#F2F2F2" d="M82.559,43.983c0,0,2.679,3.243,6.867,3.243c2.907,0,5.246-1.885,5.246-4.716
		c0-6.565-13.094-5.244-13.094-13.469c0-3.699,3.208-6.792,8.112-6.792c2.566,0,7.169,1.095,7.169,4.565v1.886h-2.491v-1.245
		c0-1.584-2.188-2.754-4.64-2.754c-3.434,0-5.434,2-5.434,4.264c0,6.15,13.093,4.641,13.093,13.396c0,3.959-3.057,7.318-8.037,7.318
		c-5.433,0-8.414-3.772-8.414-3.772L82.559,43.983z"/>
	<path fill="#F2F2F2" d="M101.119,43.983c0,0,2.678,3.243,6.867,3.243c2.905,0,5.245-1.885,5.245-4.716
		c0-6.565-13.093-5.244-13.093-13.469c0-3.699,3.207-6.792,8.112-6.792c2.566,0,7.169,1.095,7.169,4.565v1.886h-2.49v-1.245
		c0-1.584-2.188-2.754-4.643-2.754c-3.432,0-5.432,2-5.432,4.264c0,6.15,13.094,4.641,13.094,13.396
		c0,3.959-3.057,7.318-8.037,7.318c-5.434,0-8.414-3.772-8.414-3.772L101.119,43.983z"/>
	<path fill="#F2F2F2" d="M119.152,25.872c-0.188-0.717-0.68-0.831-1.396-0.831h-0.452v-2.34h1.17c1.886,0,2.754,0.34,3.207,2.189
		l4.603,18.3c0.34,1.358,0.566,2.83,0.566,2.83h0.075c0,0,0.34-1.472,0.718-2.83l5.846-20.375h2.604l5.322,20.375
		c0.376,1.358,0.604,2.83,0.604,2.83h0.075c0,0,0.265-1.472,0.604-2.83l4.6-18.3c0.454-1.85,1.322-2.189,3.207-2.189h1.17v2.34
		h-0.417c-0.753,0-1.205,0.113-1.394,0.831l-6.111,23.355h-3.133l-4.943-18.45c-0.452-1.698-0.867-3.924-0.867-3.924h-0.077
		c0,0-0.453,2.189-0.942,3.887l-5.434,18.488h-3.131L119.152,25.872z"/>
	<path fill="#F2F2F2" d="M153.065,46.888h2.49V25.041h-2.49v-2.34h7.583v2.34h-2.527v21.847h2.527v2.339h-7.583V46.888z"/>
	<path fill="#F2F2F2" d="M162.988,46.888h1.62c0.529,0,0.832-0.265,0.832-0.83V22.701h2.415l13.544,18.906
		c0.909,1.321,2.149,3.469,2.149,3.469h0.076c0,0-0.187-2.073-0.187-3.469V25.002c0-1.622,0.677-2.303,2.302-2.303h2.79v2.34h-1.619
		c-0.531,0-0.832,0.265-0.832,0.831v23.354h-2.414l-13.546-18.903c-0.943-1.283-2.188-3.434-2.188-3.434h-0.076
		c0,0,0.228,2.039,0.228,3.434v16.601c0,1.622-0.679,2.302-2.304,2.302h-2.791V46.888L162.988,46.888z"/>
	<path fill="#F2F2F2" d="M190.677,46.888h1.621c0.53,0,0.832-0.265,0.832-0.83V22.701h2.413l13.546,18.906
		c0.907,1.321,2.151,3.469,2.151,3.469h0.074c0,0-0.188-2.073-0.188-3.469V25.002c0-1.622,0.68-2.303,2.302-2.303h2.793v2.34H214.6
		c-0.528,0-0.832,0.265-0.832,0.831v23.354h-2.412L197.81,30.324c-0.945-1.283-2.189-3.434-2.189-3.434h-0.077
		c0,0,0.228,2.039,0.228,3.434v16.6c0,1.625-0.681,2.303-2.303,2.303h-2.792L190.677,46.888L190.677,46.888z"/>
	<path fill="#F2F2F2" d="M220.821,25.041h-2.452v-2.34h15.165c1.624,0,2.303,0.68,2.303,2.303v2.642h-2.49v-1.774
		c0-0.566-0.302-0.831-0.83-0.831h-9.057v9.658h9.961v2.34h-9.961v9.019c0,0.565,0.302,0.83,0.831,0.83h9.321
		c0.526,0,0.83-0.265,0.83-0.83v-1.774h2.451v2.641c0,1.622-0.678,2.302-2.3,2.302h-11.472c-1.623,0-2.301-0.677-2.301-2.302V25.041
		z"/>
	<path fill="#F2F2F2" d="M240.889,25.041h-2.452v-2.34h11.245c4.451,0,7.619,2.944,7.619,7.548c0,4.113-2.527,6.529-5.131,7.093
		v0.077c0,0,0.53,0.3,0.908,1.055l3.81,7.547c0.38,0.794,0.943,0.868,1.887,0.868h0.527v2.339h-1.168c-2.149,0-2.793-0.265-3.661-2
		l-3.81-7.584c-0.718-1.396-1.208-1.584-2.678-1.584h-4.454v11.168h-2.641V25.041H240.889z M249.415,35.719
		c3.171,0,5.132-2.075,5.132-5.395c0-3.283-1.961-5.283-5.094-5.283h-5.924v10.678H249.415z"/>
</g>
</svg>
