<?xml version="1.0" encoding="UTF-8"?>
<svg xmlns="http://www.w3.org/2000/svg" version="1.0" width="347" height="212">
<defs>
	<clipPath id="eyeclip">
		<path d="M 331,149 C 316,206 311,207 268,209 C 225,212 228,194 222,149 C 217,110 238,88 267,87 C 297,87 337,125 331,149 z M 122,150 C 122,191 122,207 80,208 C 38,209 29,183 20,155 C 11,126 43,86 76,86 C 108,86 121,109 122,150 z"/>
	</clipPath>
</defs>

<g clip-path="url(#eyeclip)">
	<rect width="331" height="143" x="5" y="68" fill="white"/>
	<path d="M 8,79 L 12,184 C 24,123 74,73 124,128 L 217,126 C 272,76 322,125 332,176 L 329,79 L 8,79 z" fill="gray"/>
</g>

<path d="M 304,148 C 304,182 293,207 266,208 C 240,208 226,189 225,158 C 224,121 247,103 249,106 C 252,109 240,115 242,129 C 244,143 250,146 257,146 C 264,146 272,143 272,124 C 272,105 258,108 257,104 C 257,101 304,100 304,148 z M 117,161 C 116,189 104,206 82,206 C 60,206 44,186 42,161 C 38,127 56,107 58,110 C 60,113 52,113 52,129 C 52,135 57,146 68,146 C 79,146 84,133 83,125 C 80,102 68,110 67,106 C 66,104 122,90 117,161 z M 115,16 C 115,16 76,0 45,9 C 12,18 3,43 1,42 C 0,41 13,15 45,7 C 78,0 115,16 115,16 z M 224,20 C 224,20 249,0 287,3 C 324,7 341,34 343,33 C 344,32 328,5 286,1 C 243,-1 224,20 224,20 z M 228,95 C 250,74 321,76 331,132 C 338,166 329,152 328,173 C 339,113 275,70 229,105 C 221,103 236,97 228,95 z M 115,96 C 73,62 4,98 13,158 C 15,145 16,160 24,171 C 7,113 68,70 113,105 C 121,103 100,90 115,96 z M 233,204 C 233,204 271,214 309,202 C 309,202 270,221 233,204 z M 50,205 C 50,205 82,210 109,204 C 109,204 82,216 50,205 z" fill="black"/>

<path d="M 57,154 C 43,223 130,209 98,147 C 103,194 65,203 57,154 z M 248,152 C 232,185 251,200 272,197 C 293,195 301,160 283,142 C 297,200 246,203 248,152 z" fill="#5f8291"/>
<path d="M 59,177 C 65,210 112,197 101,164 C 102,187 77,203 59,177 z M 246,169 C 237,202 301,207 289,161 C 289,198 252,201 246,169 z" fill="#91b4c3"/>
</svg>