<svg width="415" height="493" viewBox="0 0 415 493" fill="none" xmlns="http://www.w3.org/2000/svg">
<path d="M10.1481 0.0927152C4.37863 0.639595 -0.0278673 5.49501 0.000132694 11.2917V481.662C0.0274767 485.435 1.95713 488.943 5.13293 490.99C8.30873 493.037 12.297 493.345 15.7499 491.81L95.1989 456.986V481.662C95.2185 485.373 97.0778 488.838 100.164 490.904C103.246 492.975 107.156 493.377 110.598 491.986L195.996 456.814V481.662H196C196.019 485.373 197.879 488.838 200.961 490.905C204.046 492.975 207.957 493.377 211.399 491.987L407.398 413.592C411.609 411.888 414.375 407.81 414.398 403.268V89.6875C414.445 85.082 411.668 80.918 407.398 79.1915L211.399 0.796523C209.621 0.089493 207.695 -0.152694 205.801 0.0934056C200.168 0.804346 195.957 5.6168 196 11.2924V35.9644L110.602 0.792403L110.598 0.796309C108.875 0.116619 107.012 -0.125568 105.176 0.093192C99.4731 0.722102 95.1642 5.55799 95.1996 11.2922V35.7922L15.7506 0.968192C13.9889 0.202572 12.0592 -0.098208 10.149 0.093192L10.1481 0.0927152ZM218.398 27.7407L391.998 97.2097V395.56L218.398 465.029V27.7407ZM117.598 27.9165L195.996 60.2875V432.487L117.598 464.858V212.878V212.882C117.668 209.656 116.344 206.558 113.965 204.382C111.586 202.203 108.383 201.156 105.176 201.507C99.4028 202.144 95.0742 207.082 95.1996 212.882V432.672L22.3986 464.52V28.2804L95.1996 60.1284V168.098V168.094C95.1567 171.094 96.3168 173.981 98.4223 176.118C100.528 178.251 103.403 179.454 106.399 179.454C109.399 179.454 112.27 178.251 114.376 176.118C116.481 173.981 117.641 171.094 117.598 168.094L117.598 27.9165Z" fill="black"/>
</svg>
