<svg xmlns="http://www.w3.org/2000/svg" viewBox="0 0 32 40" x="0px" y="0px"><title>external-link</title><path fill="#ccc" d="M23.992 0.014c-0.005 0-0.010 0-0.016 0-0.631 0-1.142 0.512-1.142 1.142s0.511 1.142 1.142 1.142c0.006 0 0.011 0 0.017 0h4.094l-18.604 18.604c-0.207 0.207-0.335 0.492-0.335 0.808 0 0.631 0.512 1.142 1.142 1.142 0.315 0 0.601-0.128 0.807-0.334l18.604-18.604v4.094c0 0.005 0 0.010 0 0.016 0 0.631 0.511 1.142 1.142 1.142s1.142-0.511 1.142-1.142c0-0.006 0-0.011 0-0.017v0.001-6.666c0.010-0.055 0.015-0.12 0.015-0.185 0-0.631-0.511-1.142-1.142-1.142-0.005 0-0.010 0-0.016 0h-6.851zM1.155 6.865c-0.63 0-1.142 0.511-1.142 1.142v0 22.837c0 0.631 0.512 1.142 1.142 1.142h22.837c0.631 0 1.142-0.511 1.142-1.142v0-17.23c0-0.005 0-0.010 0-0.016 0-0.631-0.511-1.142-1.142-1.142s-1.142 0.511-1.142 1.142c0 0.006 0 0.011 0 0.017v-0.001 16.088h-20.554v-20.554h16.157c0.005 0 0.010 0 0.016 0 0.631 0 1.142-0.511 1.142-1.142s-0.511-1.142-1.142-1.142c-0.006 0-0.011 0-0.017 0z"/></svg>