<svg width="468" height="234" viewBox="0 0 468 234" fill="currentColor" xmlns="http://www.w3.org/2000/svg">
<path d="M140.67 117C140.67 123.188 143.127 129.125 147.502 133.5C151.877 137.875 157.814 140.332 164.002 140.332H304.002C312.338 140.332 320.041 135.887 324.209 128.668C328.377 121.449 328.377 112.551 324.209 105.332C320.041 98.1131 312.338 93.6681 304.002 93.6681H164.002C157.815 93.6681 151.877 96.1251 147.502 100.5C143.127 104.875 140.67 110.812 140.67 117ZM187.338 187H117.334C92.3261 187 69.2171 173.656 56.7131 152C44.2091 130.344 44.2091 103.656 56.7131 82.0001C69.2171 60.3441 92.3261 47.0001 117.334 47.0001H187.334C195.67 47.0001 203.373 42.5509 207.541 35.3321C211.709 28.1133 211.709 19.2191 207.541 12.0001C203.373 4.78128 195.67 0.332077 187.334 0.332077H117.334C75.6541 0.332077 37.1391 22.5701 16.2941 58.6681C-4.54594 94.7621 -4.54594 139.238 16.2941 175.328C37.1341 211.426 75.6491 233.664 117.334 233.664H187.334C195.67 233.664 203.373 229.215 207.541 221.996C211.709 214.777 211.709 205.883 207.541 198.664C203.373 191.445 195.67 186.996 187.334 186.996L187.338 187ZM350.668 0.330078H280.668C272.332 0.330078 264.629 4.77928 260.461 11.9981C256.293 19.2169 256.293 28.1111 260.461 35.3301C264.629 42.5489 272.332 46.9981 280.668 46.9981H350.668C375.676 46.9981 398.785 60.3421 411.289 81.9981C423.793 103.654 423.793 130.342 411.289 151.998C398.785 173.654 375.676 186.998 350.668 186.998H280.668C272.332 186.998 264.629 191.447 260.461 198.666C256.293 205.885 256.293 214.779 260.461 221.998C264.629 229.217 272.332 233.666 280.668 233.666H350.668C392.348 233.666 430.863 211.428 451.708 175.33C472.548 139.236 472.548 94.7601 451.708 58.6701C430.868 22.5721 392.353 0.334076 350.668 0.334076V0.330078Z" fill="black"/>
</svg>
